<mxfile modified="2022-04-27T04:15:37.963Z" host="app.diagrams.net" agent="5.0 (Windows NT 10.0; Win64; x64) AppleWebKit/537.36 (KHTML, like Gecko) Chrome/100.0.4896.60 Safari/537.36" etag="hbgSjyRZKBQglfsNABzK" version="17.4.6" type="github">
  <diagram id="VDK6aByDvDrFFNNLJWZu" name="ÃÂ§ÃÂ¬ÃÂ¬ 1 ÃÂ©ÃÂ¡ÃÂµ">
    <mxGraphModel dx="1422" dy="762" grid="1" gridSize="10" guides="1" tooltips="1" connect="1" arrows="1" fold="1" page="1" pageScale="1" pageWidth="827" pageHeight="1169" math="0" shadow="0">
      <root>
        <mxCell id="0" />
        <mxCell id="1" parent="0" />
        <mxCell id="WQWlx0ixhCpkncUQ-owe-3" value="" style="edgeStyle=orthogonalEdgeStyle;rounded=0;orthogonalLoop=1;jettySize=auto;html=1;" parent="1" source="WQWlx0ixhCpkncUQ-owe-1" target="WQWlx0ixhCpkncUQ-owe-2" edge="1">
          <mxGeometry relative="1" as="geometry" />
        </mxCell>
        <mxCell id="WQWlx0ixhCpkncUQ-owe-1" value="AA" style="rounded=0;whiteSpace=wrap;html=1;" parent="1" vertex="1">
          <mxGeometry x="140" y="270" width="120" height="80" as="geometry" />
        </mxCell>
        <mxCell id="HDr_tRibk5UZgyrvD1vS-1" style="edgeStyle=orthogonalEdgeStyle;rounded=0;orthogonalLoop=1;jettySize=auto;html=1;exitX=0.5;exitY=0;exitDx=0;exitDy=0;" parent="1" source="WQWlx0ixhCpkncUQ-owe-2" edge="1">
          <mxGeometry relative="1" as="geometry">
            <mxPoint x="220" y="220" as="targetPoint" />
          </mxGeometry>
        </mxCell>
        <mxCell id="WQWlx0ixhCpkncUQ-owe-2" value="cddd" style="rounded=0;whiteSpace=wrap;html=1;" parent="1" vertex="1">
          <mxGeometry x="340" y="290" width="120" height="60" as="geometry" />
        </mxCell>
        <mxCell id="yJlsOYpROjirQ3XayOsa-1" value="dd" style="rounded=0;whiteSpace=wrap;html=1;" vertex="1" parent="1">
          <mxGeometry x="160" y="160" width="120" height="60" as="geometry" />
        </mxCell>
      </root>
    </mxGraphModel>
  </diagram>
</mxfile>
